# xmcd
#
# Track frame offsets: 
#        150
#        17759
#        36226
#        63366
#        85740
#        101201
#        120244
#        149721
#        173933
#        191079
#        210554
#
# Disc length: 3087 seconds
#
# Revision: 0
# Processed by: cddbd v1.5.2PL0 Copyright (c) Steve Scherf et al.
# Submitted via: ExactAudioCopy v0.99pb5
#
DISCID=9b0c0d0b
DTITLE=Various Artist - Faith Hope and Love
DYEAR=2003
DGENRE=Gospel
TTITLE0=I Can Only Imagine - Rita Springer
TTITLE1=Go Light Your World - Kathy Troccoli
TTITLE2=Peaople Get Ready, Jesus is Comin' - Crystal Lewis
TTITLE3=Redeemer - Nicole C. Mullen
TTITLE4=Thankful - Mary <ary
TTITLE5=Every Time - CeCe Winans
TTITLE6=Look a Little Closer - Helen Bayler
TTITLE7=Love Can Build a Bridge - The Judds
TTITLE8=On My Knees - Jaci Velasquez
TTITLE9=The Great Divide - Point of Grace
TTITLE10=Bridge Over Troubled Water - LeAnn Rimes
EXTD=
EXTT0=
EXTT1=
EXTT2=
EXTT3=
EXTT4=
EXTT5=
EXTT6=
EXTT7=
EXTT8=
EXTT9=
EXTT10=
PLAYORDER=
